<svg width="32" height="30" viewBox="0 0 32 30" fill="none" xmlns="http://www.w3.org/2000/svg">
<path d="M1 1C1.16314 1.11864 2.06779 16.394 15.8305 9.51269" stroke="#151515" stroke-width="0.85" stroke-linecap="round" stroke-linejoin="round"/>
<path d="M30.661 1C30.4979 1.11864 29.5932 16.394 15.8306 9.51269" stroke="#151515" stroke-width="0.85" stroke-linecap="round" stroke-linejoin="round"/>
<path d="M15.8306 4.11426V9.51255" stroke="#151515" stroke-width="0.85" stroke-linecap="round" stroke-linejoin="round"/>
<path d="M3.22461 11.2036C5.04013 16.968 6.03855 22.9585 6.1907 29.0002" stroke="#151515" stroke-width="0.85" stroke-linecap="round" stroke-linejoin="round"/>
<path d="M28.4363 11.2036C26.6208 16.968 25.6224 22.9585 25.4702 29.0002" stroke="#151515" stroke-width="0.85" stroke-linecap="round" stroke-linejoin="round"/>
<path d="M10.3582 15.9341C10.3582 15.9341 11.7374 18.6629 15.8306 17.2985" stroke="#151515" stroke-width="0.85" stroke-linecap="round" stroke-linejoin="round"/>
<path d="M15.8306 14.5698V17.2986C19.9238 18.663 21.303 15.9342 21.303 15.9342" stroke="#151515" stroke-width="0.85" stroke-linecap="round" stroke-linejoin="round"/>
<path d="M10.3582 21.4067C10.3582 21.4067 11.7374 24.1355 15.8306 22.7711" stroke="#151515" stroke-width="0.85" stroke-linecap="round" stroke-linejoin="round"/>
<path d="M15.8306 20.0273V22.771C19.9238 24.1354 21.303 21.4066 21.303 21.4066" stroke="#151515" stroke-width="0.85" stroke-linecap="round" stroke-linejoin="round"/>
<path d="M10.3582 26.9087C10.3582 26.9087 11.7374 29.6375 15.8306 28.2731" stroke="#151515" stroke-width="0.85" stroke-linecap="round" stroke-linejoin="round"/>
<path d="M15.8306 25.5V28.2288C19.9238 29.5932 21.303 26.8644 21.303 26.8644" stroke="#151515" stroke-width="0.85" stroke-linecap="round" stroke-linejoin="round"/>
<path d="M7.83682 6.39834C7.82718 6.36865 7.82489 6.33706 7.83015 6.30629C7.83542 6.27551 7.84807 6.24648 7.86704 6.22168C7.886 6.19688 7.91071 6.17705 7.93903 6.16391C7.96735 6.15077 7.99843 6.1447 8.02962 6.14623C8.08075 6.14623 8.12979 6.16654 8.16594 6.2027C8.2021 6.23885 8.22241 6.28789 8.22241 6.33902" stroke="#151515" stroke-width="0.85" stroke-linecap="round" stroke-linejoin="round"/>
<path d="M8.22259 6.39844C8.22464 6.42497 8.22117 6.45165 8.2124 6.47678C8.20363 6.50191 8.18976 6.52495 8.17164 6.54446C8.15353 6.56396 8.13158 6.5795 8.10717 6.59011C8.08275 6.60071 8.05641 6.60614 8.02979 6.60606C8.00318 6.60614 7.97683 6.60071 7.95242 6.59011C7.92801 6.5795 7.90605 6.56396 7.88794 6.54446C7.86983 6.52495 7.85595 6.50191 7.84719 6.47678C7.83842 6.45165 7.83495 6.42497 7.837 6.39844" stroke="#151515" stroke-width="0.85" stroke-linecap="round" stroke-linejoin="round"/>
<path d="M23.4386 6.39834C23.429 6.36865 23.4267 6.33706 23.432 6.30629C23.4372 6.27551 23.4499 6.24648 23.4688 6.22168C23.4878 6.19688 23.5125 6.17705 23.5408 6.16391C23.5692 6.15077 23.6002 6.1447 23.6314 6.14623C23.6826 6.14623 23.7316 6.16654 23.7678 6.2027C23.8039 6.23885 23.8242 6.28789 23.8242 6.33902" stroke="#151515" stroke-width="0.85" stroke-linecap="round" stroke-linejoin="round"/>
<path d="M23.8242 6.39844C23.8262 6.42497 23.8227 6.45165 23.814 6.47678C23.8052 6.50191 23.7913 6.52495 23.7732 6.54446C23.7551 6.56396 23.7331 6.5795 23.7087 6.59011C23.6843 6.60071 23.658 6.60614 23.6314 6.60606C23.6047 6.60614 23.5784 6.60071 23.554 6.59011C23.5296 6.5795 23.5076 6.56396 23.4895 6.54446C23.4714 6.52495 23.4575 6.50191 23.4488 6.47678C23.44 6.45165 23.4365 6.42497 23.4386 6.39844" stroke="#151515" stroke-width="0.85" stroke-linecap="round" stroke-linejoin="round"/>
</svg>
