<svg width="49" height="48" viewBox="0 0 49 48" fill="none" xmlns="http://www.w3.org/2000/svg">
<path d="M8.03369 27.075L10.7405 30.4L15.4838 24.575" stroke="white" stroke-width="1.5" stroke-linecap="round" stroke-linejoin="round"/>
<path d="M20.4504 27.075L23.1573 30.4L27.9005 24.575" stroke="white" stroke-width="1.5" stroke-linecap="round" stroke-linejoin="round"/>
<path d="M32.8674 27.075L35.5743 30.4L40.3175 24.575" stroke="white" stroke-width="1.5" stroke-linecap="round" stroke-linejoin="round"/>
<path d="M8.03369 37.075L10.7405 40.4L15.4838 34.575" stroke="white" stroke-width="1.5" stroke-linecap="round" stroke-linejoin="round"/>
<path d="M20.4504 37.075L23.1573 40.4L27.9005 34.575" stroke="white" stroke-width="1.5" stroke-linecap="round" stroke-linejoin="round"/>
<path d="M5.97241 19H48.1894" stroke="white" stroke-width="1.5" stroke-linecap="round" stroke-linejoin="round"/>
<path d="M12.1808 6.49976H5.45091C4.20568 6.57715 3.04087 7.14534 2.20884 8.08122C1.37681 9.01709 0.944549 10.2453 1.00571 11.4998V41.4998C0.944549 42.7543 1.37681 43.9825 2.20884 44.9183C3.04087 45.8542 4.20568 46.4224 5.45091 46.4998H43.7442C44.9894 46.4224 46.1543 45.8542 46.9863 44.9183C47.8183 43.9825 48.2506 42.7543 48.1894 41.4998V11.4998C48.2506 10.2453 47.8183 9.01709 46.9863 8.08122C46.1543 7.14534 44.9894 6.57715 43.7442 6.49976H40.7394" stroke="white" stroke-width="1.5" stroke-linecap="round" stroke-linejoin="round"/>
<path d="M35.7727 1.5V11.5" stroke="white" stroke-width="1.5" stroke-linecap="round" stroke-linejoin="round"/>
<path d="M13.4226 1.5V11.5" stroke="white" stroke-width="1.5" stroke-linecap="round" stroke-linejoin="round"/>
</svg>
