<svg width="27" height="25" viewBox="0 0 27 25" fill="none" xmlns="http://www.w3.org/2000/svg">
<path d="M6.26242 11.4315C5.63244 8.73984 7.1902 8.37331 7.70563 8.24731" stroke="white" stroke-width="0.85" stroke-linecap="round" stroke-linejoin="round"/>
<path d="M6.45729 16.7004C2.28801 10.5266 3.9603 6.99878 7.17889 6.18554C8.0599 5.91866 8.9948 5.88316 9.89351 6.08246C10.0683 6.13481 10.2403 6.19597 10.4089 6.26572" stroke="white" stroke-width="0.85" stroke-linecap="round" stroke-linejoin="round"/>
<path d="M11.6802 7.29652C12.2195 6.82728 12.8462 6.46917 13.5243 6.24275C14.3764 5.9894 15.2837 5.9894 16.1358 6.24275C18.9306 6.86127 20.5227 9.67897 18.2892 14.3179" stroke="white" stroke-width="0.85" stroke-linecap="round" stroke-linejoin="round"/>
<path d="M13.4673 3.96345C16.0101 3.65419 17.7167 1.97044 17.396 1.37483C17.0753 0.77922 15.6206 0.996847 14.6699 1.31756C13.8598 1.61595 13.1275 2.09366 12.528 2.71496C12.2486 2.99337 12.0096 3.30951 11.8179 3.65419" stroke="white" stroke-width="0.85" stroke-linecap="round" stroke-linejoin="round"/>
<path d="M10.3059 1.97046C10.7788 2.24326 11.1736 2.63306 11.4524 3.10242C11.7312 3.57178 11.8847 4.10495 11.898 4.65071C11.9211 4.85241 11.9211 5.05608 11.898 5.25778" stroke="white" stroke-width="0.85" stroke-linecap="round" stroke-linejoin="round"/>
<path fill-rule="evenodd" clip-rule="evenodd" d="M19.0567 19.0485C19.492 21.0873 18.6558 23.0918 16.4681 23.4583C11.8205 23.9609 7.14174 24.1141 2.47123 23.9165C2.11746 23.8931 1.78268 23.748 1.52377 23.5058C1.26485 23.2636 1.09778 22.9392 1.05092 22.5878C0.959529 22.2405 0.991845 21.8723 1.14232 21.5463C1.2928 21.2202 1.55206 20.9567 1.87562 20.801C6.12502 18.8599 10.5125 17.2366 15.002 15.9444C17.2012 15.4519 18.736 16.9982 19.0567 19.0485Z" stroke="white" stroke-width="0.85" stroke-linecap="round" stroke-linejoin="round"/>
<path d="M19.0567 19.0485C19.492 21.0873 18.6558 23.0918 16.4681 23.4583C11.8205 23.9609 7.14174 24.1141 2.47123 23.9165C2.11746 23.8931 1.78268 23.748 1.52377 23.5058C1.26485 23.2636 1.09778 22.9392 1.05092 22.5878C0.959529 22.2405 0.991845 21.8723 1.14232 21.5463C1.2928 21.2202 1.55206 20.9567 1.87562 20.801C6.12502 18.8599 10.5125 17.2366 15.002 15.9444C17.2012 15.4519 18.736 16.9982 19.0567 19.0485Z" stroke="white" stroke-width="0.85" stroke-linecap="round" stroke-linejoin="round"/>
<path d="M23.0772 17.0783C23.2032 16.9638 23.3292 16.8378 23.4437 16.7118C24.4975 15.5664 24.8984 14.421 24.3371 14.1575C23.7759 13.8941 22.4586 14.6157 21.4049 15.7611C21.166 16.0298 20.9097 16.2823 20.6375 16.5171" stroke="white" stroke-width="0.85" stroke-linecap="round" stroke-linejoin="round"/>
<path d="M21.3477 20.2741L22.4243 20.7666C23.8332 21.4195 25.3222 21.5913 25.7346 21.1331C26.1469 20.675 25.3566 19.7701 23.9477 19.1058C23.7988 19.0256 23.6385 18.9683 23.4781 18.8996C24.9786 18.5331 26.0667 17.926 25.9751 17.4678C25.9238 17.2839 25.8149 17.1213 25.6644 17.0038C25.5139 16.8864 25.3298 16.8201 25.139 16.8149" stroke="white" stroke-width="0.85" stroke-linecap="round" stroke-linejoin="round"/>
<path d="M14.4752 19.7816C14.4837 18.7363 14.2811 17.7 13.8796 16.7348C13.8223 16.5859 13.7536 16.4485 13.6963 16.2996" stroke="white" stroke-width="0.85" stroke-linecap="round" stroke-linejoin="round"/>
<path d="M10.7068 20.5261C11.1752 21.3992 11.3707 22.3927 11.268 23.3782C11.2572 23.5552 11.2342 23.7312 11.1993 23.9051" stroke="white" stroke-width="0.85" stroke-linecap="round" stroke-linejoin="round"/>
<path d="M5.81583 21.4883C5.9901 20.7447 5.87546 19.9628 5.49512 19.3005" stroke="white" stroke-width="0.85" stroke-linecap="round" stroke-linejoin="round"/>
</svg>
