<svg width="53" height="48" viewBox="0 0 53 48" fill="none" xmlns="http://www.w3.org/2000/svg">
<path d="M17.7827 32.4146C17.8476 31.2945 18.1363 30.1991 18.6316 29.1938C18.8543 28.7274 19.1692 28.3117 19.557 27.9718C19.9448 27.632 20.3974 27.3753 20.8872 27.2174C21.9873 26.9409 23.1059 26.7452 24.2342 26.6318C23.0718 26.0959 22.1311 25.1697 21.5735 24.0121C21.0158 22.8545 20.8761 21.5377 21.1782 20.2878C21.4008 19.3255 21.8796 18.4424 22.5633 17.7331C23.2469 17.0239 24.1096 16.5152 25.0588 16.2618C26.4132 15.8011 27.8927 15.8885 29.1842 16.5055C30.4757 17.1225 31.478 18.2208 31.979 19.568C32.4799 20.9152 32.4403 22.4056 31.8685 23.7239C31.2968 25.0422 30.2376 26.0851 28.9152 26.6318C30.0405 26.7739 31.1519 27.0106 32.2379 27.3394C32.7236 27.4922 33.1726 27.7445 33.5567 28.0805C33.9407 28.4164 34.2514 28.8287 34.4693 29.2914C34.9646 30.2967 35.2533 31.3921 35.3182 32.5122" stroke="white" stroke-width="1.5" stroke-linecap="round" stroke-linejoin="round"/>
<path d="M16.7884 10.0642C13.3793 11.7829 10.6159 14.5671 8.91261 17.9993C7.20929 21.4314 6.65782 25.3266 7.34091 29.1007C8.02399 32.8748 9.90481 36.3245 12.7013 38.9324C15.4978 41.5403 19.0594 43.1658 22.8518 43.5654" stroke="white" stroke-width="1.5" stroke-linecap="round" stroke-linejoin="round"/>
<path d="M17.5647 42.1504C15.9905 41.4399 14.2136 41.3278 12.5635 41.8348C10.9133 42.3418 9.5019 43.4335 8.59082 44.9075C9.78407 45.8629 11.2455 46.417 12.7688 46.4914C14.292 46.5658 15.8 46.1569 17.0796 45.3223" stroke="white" stroke-width="1.5" stroke-linecap="round" stroke-linejoin="round"/>
<path d="M10.1914 36.0262C9.38652 34.4923 8.0531 33.3065 6.44119 32.6911C4.82927 32.0757 3.04956 32.0729 1.43579 32.6834C1.79619 34.1738 2.61286 35.5126 3.77047 36.5109C4.92808 37.5091 6.36814 38.1162 7.88728 38.2466" stroke="white" stroke-width="1.5" stroke-linecap="round" stroke-linejoin="round"/>
<path d="M7.08707 26.632C7.17332 24.9146 6.63496 23.2243 5.57263 21.8772C4.51029 20.53 2.99667 19.6182 1.31468 19.312C0.878568 20.755 0.896143 22.2982 1.365 23.7308C1.83387 25.1633 2.73112 26.4152 3.93409 27.3152" stroke="white" stroke-width="1.5" stroke-linecap="round" stroke-linejoin="round"/>
<path d="M9.75501 16.4814C10.7139 15.0251 11.1056 13.2642 10.855 11.5356C10.6044 9.807 9.72922 8.23199 8.3968 7.11182C7.28269 8.15539 6.52198 9.52421 6.22176 11.0256C5.92155 12.5269 6.09696 14.0852 6.7233 15.481" stroke="white" stroke-width="1.5" stroke-linecap="round" stroke-linejoin="round"/>
<path d="M16.7887 10.0644C18.3723 9.36832 19.6469 8.11194 20.3711 6.53342C21.0953 4.95489 21.2187 3.16392 20.7178 1.5C19.2173 1.76316 17.8368 2.49338 16.7707 3.58776C15.7047 4.68213 15.0069 6.08547 14.7756 7.59999" stroke="white" stroke-width="1.5" stroke-linecap="round" stroke-linejoin="round"/>
<path d="M36.1916 10.0642C39.6007 11.7829 42.364 14.5671 44.0674 17.9993C45.7707 21.4314 46.3221 25.3266 45.6391 29.1007C44.956 32.8748 43.0752 36.3245 40.2786 38.9324C37.4821 41.5403 33.9206 43.1658 30.1282 43.5654" stroke="white" stroke-width="1.5" stroke-linecap="round" stroke-linejoin="round"/>
<path d="M35.4155 42.1504C36.9898 41.4399 38.7666 41.3278 40.4168 41.8348C42.0669 42.3418 43.4783 43.4335 44.3894 44.9075C43.1962 45.8629 41.7347 46.417 40.2115 46.4914C38.6882 46.5658 37.1803 46.1569 35.9006 45.3223" stroke="white" stroke-width="1.5" stroke-linecap="round" stroke-linejoin="round"/>
<path d="M42.7883 36.0262C43.5932 34.4923 44.9266 33.3065 46.5385 32.6911C48.1504 32.0757 49.9302 32.0729 51.5439 32.6834C51.1835 34.1738 50.3669 35.5126 49.2092 36.5109C48.0516 37.5091 46.6116 38.1162 45.0924 38.2466" stroke="white" stroke-width="1.5" stroke-linecap="round" stroke-linejoin="round"/>
<path d="M45.8928 26.632C45.8065 24.9146 46.3449 23.2243 47.4072 21.8772C48.4695 20.53 49.9831 19.6182 51.6651 19.312C52.1208 20.7709 52.1108 22.3367 51.6367 23.7896C51.1625 25.2425 50.248 26.5095 49.0215 27.4128" stroke="white" stroke-width="1.5" stroke-linecap="round" stroke-linejoin="round"/>
<path d="M43.2249 16.4814C42.266 15.0251 41.8743 13.2642 42.1249 11.5356C42.3755 9.807 43.2507 8.23199 44.5831 7.11182C45.6972 8.15539 46.4579 9.52421 46.7581 11.0256C47.0584 12.5269 46.883 14.0852 46.2566 15.481" stroke="white" stroke-width="1.5" stroke-linecap="round" stroke-linejoin="round"/>
<path d="M36.1915 10.0644C34.608 9.36832 33.3333 8.11194 32.6091 6.53342C31.8849 4.95489 31.7616 3.16392 32.2624 1.5C33.7629 1.76316 35.1434 2.49338 36.2095 3.58776C37.2756 4.68213 37.9734 6.08547 38.2046 7.59999" stroke="white" stroke-width="1.5" stroke-linecap="round" stroke-linejoin="round"/>
</svg>
