<svg width="243" height="48" viewBox="0 0 243 48" fill="none" xmlns="http://www.w3.org/2000/svg">
<path d="M0.15784 9.71842C1.6616 9.64035 5.70761 9.71842 7.3677 9.69612C7.73992 9.69612 8.01908 9.76675 8.06003 10.2017C8.14936 10.9564 8.11958 12.2873 8.16797 13.0569C8.20891 13.7372 8.30569 13.8748 8.63696 13.4473C11.6557 8.51389 18.9623 7.88189 23.522 10.778C31.841 15.86 31.7666 33.5042 23.4661 38.5379C19.2489 41.2481 12.3443 40.8763 9.17668 36.5899C8.97941 36.4077 8.39875 35.3258 8.41736 36.114C8.40991 38.0509 8.41736 45.8246 8.41363 47.5013C8.43969 48.0478 8.11214 47.992 7.55009 47.9957C5.60339 47.9883 2.05987 48.018 0.236006 47.9808C0.109451 47.966 0.0647852 47.9399 0.0461743 47.8805C0.0982848 45.4677 -0.143657 18.191 0.142951 9.72586H0.15784V9.71842ZM19.3643 31.4111C21.5232 28.3515 21.5604 22.5779 20.1124 19.232C17.6595 13.5179 10.2114 14.518 8.89752 20.4737C8.04514 24.2546 8.06747 29.3701 10.6507 32.1955C12.8914 34.679 17.4995 34.3295 19.3233 31.4632L19.3643 31.4074V31.4111Z" fill="#151515"/>
<path d="M36.5347 38.0398C33.0359 35.5415 32.9019 29.6378 35.6265 26.6265C37.1861 24.9349 38.9169 24.1616 41.515 23.3735C44.6007 22.5444 48.6132 21.9199 51.6803 21.2693C52.3465 21.1354 52.7895 21.0908 52.9793 20.7748C53.1207 20.5555 53.1431 20.1986 53.0984 19.7525C52.9421 17.9234 51.9743 16.0348 50.1244 15.4734C48.5052 14.9343 46.1975 15.0645 44.757 16.0013C43.7222 16.6036 43.1714 17.7672 42.7024 18.8007C42.479 19.2692 42.0286 19.3881 41.515 19.3509C39.9926 19.2803 36.6687 19.1316 35.2022 19.0535C34.7146 19.0424 34.3014 18.8639 34.4019 18.284C34.8337 15.8823 36.1476 13.6369 37.8933 12.1572C41.6118 8.92284 47.9134 8.44326 53.0053 9.56971C58.0861 10.804 60.982 14.2614 61.4919 19.6595C61.7413 22.8456 61.544 28.0355 61.6036 30.8349C61.611 31.4743 61.5775 32.058 61.8083 32.6937C62.0205 33.348 62.6718 33.6826 63.2972 33.835C64.3506 34.125 64.0751 34.8872 64.1198 36.1512C64.1198 36.4449 64.1198 36.7497 64.1198 37.0471C64.1049 39.2257 64.4362 39.8689 61.9237 39.9097C59.1656 40.1179 56.1729 39.1922 55.1605 36.7906C54.952 36.4486 54.7473 35.6084 54.2597 35.8314C53.5935 36.3742 53.0314 37.3148 52.2646 37.8278C48.1032 41.0697 40.6254 41.0957 36.5868 38.0769L36.531 38.036L36.5347 38.0398ZM51.3304 32.6826C52.622 31.4334 53.1915 29.5746 53.2212 27.7566C53.2398 26.961 53.2808 26.329 52.9458 26.2658C51.9073 26.3439 49.5288 26.9871 47.8427 27.3068C46.8154 27.5299 45.8885 27.6934 44.8947 28.0949C42.8066 28.8794 41.9207 30.5672 42.5274 32.4818C43.7222 35.7422 49.3799 34.7533 51.282 32.7309L51.3304 32.6826Z" fill="#151515"/>
<path d="M68.8023 32.1361C68.7688 25.5483 68.7911 1.76258 68.7911 0.160254C68.7986 0.0970529 68.8172 0.059876 68.8804 0.0375699C68.9847 0.000393081 69.234 0.000393081 69.6993 0.000393081C71.1696 0.000393081 74.6573 0.000393081 76.1834 0.000393081C76.697 0.0338523 77.2405 -0.114855 77.1623 0.290373C77.1623 3.06005 77.1623 27.9091 77.1623 30.7828C77.1623 31.4334 77.4675 32.5264 78.1487 32.9056C78.8857 33.4001 80.0433 33.3146 80.8398 33.3852C81.3758 33.4001 81.6029 33.7495 81.5694 34.2663C81.5768 35.3705 81.5731 37.7089 81.5694 38.7647C81.6103 39.564 81.2753 39.6235 80.4192 39.6049C79.712 39.6049 78.6661 39.6049 77.9105 39.6049C72.5245 39.8503 68.9549 37.891 68.7986 32.1807V32.1361H68.8023Z" fill="#151515"/>
<path d="M92.2595 38.3223C85.9206 34.8128 84.0632 26.6302 85.7121 19.8714C87.6663 11.5364 95.7062 7.73318 103.768 9.40242C110.599 10.7482 114.473 16.9047 114.753 23.604C114.805 24.3921 114.823 25.2769 114.812 26.0651C114.786 26.4777 114.831 26.8978 114.399 26.8904C112.173 26.8941 99.1306 26.883 94.2248 26.8941C93.8153 26.935 93.8823 27.3068 93.8935 27.7195C94.0461 29.6303 94.8799 31.7792 96.5846 32.8499C98.4383 34.0841 101.249 34.1734 103.221 33.3517C104.424 32.8982 105.216 31.7755 105.864 30.7531C106.102 30.4557 106.374 30.3441 106.843 30.359C108.462 30.4668 112.169 30.623 113.829 30.8014C114.492 30.9278 114.097 31.7308 113.911 32.2476C110.807 40.3968 99.2348 42.2221 92.319 38.3595L92.2595 38.326V38.3223ZM104.472 16.875C101.896 14.2652 96.7707 14.8711 94.9543 18.0423C94.5672 18.5554 93.3687 21.3771 94.0014 21.7414C96.097 21.7972 103.969 21.8009 106.065 21.7414C106.169 21.7042 106.233 21.6225 106.259 21.4775C106.311 21.1986 106.221 20.6335 106.102 20.061C105.845 18.8714 105.339 17.7598 104.52 16.9233L104.472 16.875Z" fill="#151515"/>
<path d="M122.584 37.4449C120.749 36.0471 119.402 34.0841 118.907 31.8275C118.817 31.3851 118.639 30.768 118.884 30.3999C119.089 30.1174 119.681 30.1583 120.541 30.1211L122.104 30.069L124.307 29.9984C125.178 29.9761 125.938 29.9278 126.418 29.9463C126.794 29.9687 127.017 30.0951 127.192 30.3664C127.527 30.9353 127.78 31.794 128.231 32.3368C129.906 34.6455 134.421 34.8834 136.658 33.5042C137.618 32.8647 138.02 31.5524 137.629 30.4743C136.68 28.2213 132.95 28.1767 130.818 27.6674C125.268 26.6488 119.096 25.0762 119.398 18.4884C119.498 10.1199 129.005 8.23507 136.084 9.28345C140.942 9.96007 144.794 12.897 145.993 17.6148C146.105 18.0535 146.265 18.7487 146.105 19.0126C145.982 19.2431 145.721 19.2915 145.453 19.3212C143.83 19.377 140.183 19.6 138.511 19.5629C138.158 19.5071 137.968 19.3138 137.808 18.9606C137.536 18.3026 137.242 17.3992 136.758 16.8266C135.087 14.425 129.5 14.1462 128.305 17.2467C127.937 18.2691 128.145 19.5071 128.901 20.299C130.129 21.5332 132.329 21.7042 134.048 22.0351C136.814 22.4738 138.816 22.9013 140.741 23.6263C142.289 24.2248 144.095 25.2026 145.133 26.6041C147.333 29.6006 146.897 34.5749 144.083 36.9914C139.278 41.4563 127.427 41.2332 122.632 37.4858L122.58 37.4449H122.584Z" fill="#151515"/>
<path d="M156.482 37.4077C154.818 35.9393 154.204 32.4669 154.297 29.9612C154.297 27.7418 154.297 20.2729 154.297 16.6631C154.293 16.1835 154.327 16.0162 153.858 15.9753C153.102 15.9307 151.502 15.9641 150.675 15.953C149.957 15.9604 149.454 15.953 149.499 15.1611C149.492 14.1016 149.492 11.5624 149.499 10.5029C149.436 9.52139 150.285 9.74073 151.096 9.70727C151.84 9.70727 152.76 9.71099 153.34 9.70355C153.839 9.6924 154.103 9.65522 154.208 9.44703C154.427 8.46556 154.234 6.50634 154.297 5.31668C154.297 4.68096 154.297 4.07498 154.297 3.47271C154.297 2.69572 154.405 2.67713 155.224 2.67713C157.461 2.72174 160.323 2.57675 162.449 2.74033C162.694 2.85558 162.653 3.16414 162.672 3.41323C162.713 4.8371 162.601 7.95624 162.724 9.41357C162.806 9.72214 163.13 9.68868 163.409 9.70355C164.768 9.71471 168.706 9.69612 169.923 9.71099C170.552 9.67753 170.552 10.1125 170.548 10.6255C170.548 11.7892 170.556 14.3246 170.544 15.2726C170.533 16.1426 170.127 15.9084 168.977 15.9493C167.254 15.9493 164.325 15.9493 163.305 15.9493C162.583 15.9493 162.691 16.0794 162.679 16.8601C162.679 20.1651 162.679 26.8235 162.679 28.9054C162.672 29.675 162.713 30.4445 162.936 31.2141C163.714 33.9131 166.923 33.2439 169.212 33.3517C170.366 33.3183 170.582 33.4781 170.552 34.3407C170.552 35.5563 170.563 38.0806 170.544 38.9766C170.529 39.6309 170.221 39.6012 169.454 39.6012C168.315 39.6012 166.219 39.6012 164.864 39.6012C162.128 39.7127 158.287 39.3409 156.53 37.4449L156.486 37.404L156.482 37.4077Z" fill="#151515"/>
<path d="M176.247 9.73701C177.706 9.65894 182.143 9.72586 183.55 9.71842C184.071 9.71842 184.063 10.0716 184.082 10.5735C184.175 11.778 184.067 14.1685 184.287 15.2392C184.447 15.1909 184.637 14.4882 184.771 14.2317C186.066 10.7817 188.85 9.566 192.3 9.71099C192.903 9.77047 193.964 9.49908 194.087 10.224C194.154 11.1943 194.091 12.8561 194.113 14.3878C194.083 15.2541 194.18 15.7857 194.042 16.2764C193.942 16.5813 193.492 16.6147 192.848 16.6222C189.46 16.5478 185.537 16.875 184.774 20.6707C184.584 21.4923 184.503 22.4218 184.506 23.2099C184.499 25.2918 184.525 35.2664 184.495 39.3632C184.473 39.6235 184.287 39.6012 183.527 39.6049C181.424 39.5714 178.082 39.6644 176.239 39.5714C175.923 38.3074 176.232 24.987 176.128 16.4809C176.128 13.0792 176.128 10.5066 176.128 9.90431C176.128 9.82252 176.139 9.76675 176.228 9.73701H176.247Z" fill="#151515"/>
<path d="M200.121 38.0398C196.622 35.5415 196.488 29.6378 199.213 26.6265C200.772 24.9349 202.503 24.1616 205.101 23.3735C208.187 22.5444 212.199 21.9199 215.266 21.2693C215.933 21.1354 216.376 21.0908 216.565 20.7748C216.707 20.5555 216.729 20.1986 216.685 19.7525C216.528 17.9234 215.56 16.0348 213.71 15.4734C212.091 14.9343 209.784 15.0645 208.343 16.0013C207.308 16.6036 206.757 17.7672 206.288 18.8007C206.065 19.2692 205.615 19.3881 205.101 19.3509C203.579 19.2803 200.255 19.1316 198.788 19.0535C198.301 19.0424 197.887 18.8639 197.988 18.284C198.42 15.8823 199.734 13.6369 201.479 12.1572C205.198 8.92284 211.5 8.44326 216.591 9.56971C221.672 10.804 224.568 14.2614 225.078 19.6595C225.327 22.8456 225.13 28.0355 225.19 30.8349C225.197 31.4743 225.164 32.058 225.394 32.6937C225.607 33.348 226.258 33.6826 226.883 33.835C227.937 34.125 227.661 34.8872 227.706 36.1512C227.706 36.4449 227.706 36.7497 227.706 37.0471C227.691 39.2257 228.022 39.8689 225.51 39.9097C222.752 40.1179 219.759 39.1922 218.747 36.7906C218.538 36.4486 218.333 35.6084 217.846 35.8314C217.18 36.3742 216.617 37.3148 215.851 37.8278C211.689 41.0697 204.211 41.0957 200.173 38.0769L200.117 38.036L200.121 38.0398ZM214.913 32.6826C216.204 31.4334 216.774 29.5746 216.804 27.7566C216.822 26.961 216.863 26.329 216.528 26.2658C215.49 26.3439 213.111 26.9871 211.425 27.3068C210.398 27.5299 209.471 27.6934 208.477 28.0949C206.389 28.8794 205.503 30.5672 206.11 32.4818C207.305 35.7422 212.962 34.7533 214.864 32.7309L214.913 32.6826Z" fill="#151515"/>
<path d="M237.808 40.3336C234.324 40.4042 231.689 36.6605 233.058 33.4224C234.804 29.1619 240.901 29.2251 242.636 33.4521C244.009 36.6642 241.299 40.3893 237.879 40.3298H237.808V40.3336Z" fill="#FFA500"/>
</svg>
