<svg width="60" height="80" viewBox="0 0 60 80" fill="none" xmlns="http://www.w3.org/2000/svg">
<path d="M59.5228 23.4555C59.2938 18.9149 57.819 14.5438 55.2619 10.8199L54.9045 10.3011C50.4723 3.85233 43.2189 0 35.4973 0L0 0.0642055V15.3913L20.6782 36.1913H0V80.0026H12.4029V60.9618C12.4029 54.2947 17.6983 48.8912 24.232 48.8912H35.8546C44.4446 48.8912 52.3776 44.1348 56.558 36.4764C58.7275 32.5034 59.7519 28.0039 59.5228 23.4607V23.4555ZM46.5612 20.2812C48.8389 28.3352 44.2155 34.6504 38.1626 35.9448L15.0858 12.7332L35.4973 12.6973C39.1643 12.6973 42.6098 14.5258 44.7139 17.5897L46.5612 20.2787V20.2812Z" fill="#151515"/>
<path d="M23.6908 68.1862C18.0481 68.2992 13.772 62.1072 15.9969 56.7448C18.8258 49.6899 28.7069 49.7952 31.5182 56.7961C33.743 62.1124 29.3512 68.2786 23.8066 68.1862H23.6908Z" fill="#FFA500"/>
</svg>
