<svg width="30" height="35" viewBox="0 0 30 35" fill="none" xmlns="http://www.w3.org/2000/svg">
<path d="M29.2882 18.0655C27.6733 17.9153 26.0497 18.2412 24.6178 19.0029C23.1859 19.7647 22.0083 20.9289 21.2302 22.352" stroke="#151515" stroke-width="1.01752" stroke-linecap="round" stroke-linejoin="round"/>
<path d="M22.2101 19.4442C21.3662 18.7452 20.3839 18.2329 19.3278 17.941C18.2716 17.6491 17.1657 17.5842 16.0826 17.7506C14.9996 17.917 13.9641 18.3109 13.0443 18.9063C12.1245 19.5018 11.3412 20.2853 10.7461 21.2053" stroke="#151515" stroke-width="1.01752" stroke-linecap="round" stroke-linejoin="round"/>
<path d="M12.3413 25.7578C13.3744 26.3151 14.541 26.5772 15.7132 26.5157C16.8853 26.4542 18.018 26.0713 18.9871 25.4089" stroke="#151515" stroke-width="1.01752" stroke-linecap="round" stroke-linejoin="round"/>
<path d="M10.8958 20.9894C12.4855 19.4007 13.417 17.2706 13.5042 15.0248C13.6122 12.9257 14.0092 10.8515 14.6839 8.86084" stroke="#151515" stroke-width="1.01752" stroke-linecap="round" stroke-linejoin="round"/>
<path d="M23.6059 28.9645C23.6059 28.9645 13.5043 37.8699 1.87419 26.489C1.45967 26.0278 1.17752 25.4632 1.0576 24.8549C0.93769 24.2465 0.984471 23.6171 1.193 23.0331C2.85444 18.8297 4.51589 11.1704 11.3943 4.42493L16.0962 1.23494C16.41 1.00433 16.7949 0.891297 17.1836 0.915591C17.5723 0.939885 17.9402 1.09996 18.2228 1.36786L21.5457 4.47477C21.704 4.6295 21.8297 4.81429 21.9156 5.01829C22.0014 5.22229 22.0456 5.44138 22.0456 5.6627C22.0456 5.88403 22.0014 6.10312 21.9156 6.30712C21.8297 6.51112 21.704 6.69591 21.5457 6.85064C20.1667 8.26287 17.6413 9.84125 15.1658 6.05315" stroke="#151515" stroke-width="1.01752" stroke-linecap="round" stroke-linejoin="round"/>
<path d="M21.8115 30.1938C21.8115 30.1938 23.3068 30.5428 24.2871 34.4305" stroke="#151515" stroke-width="1.01752" stroke-linecap="round" stroke-linejoin="round"/>
</svg>
