<svg width="24" height="30" viewBox="0 0 24 30" fill="none" xmlns="http://www.w3.org/2000/svg">
<path d="M13.9606 6.46868C14.5014 6.46868 15.0301 6.30832 15.4798 6.00786C15.9294 5.70741 16.2799 5.28037 16.4868 4.78073C16.6938 4.28109 16.7479 3.73131 16.6424 3.2009C16.5369 2.67049 16.2765 2.18328 15.8941 1.80087C15.5117 1.41847 15.0245 1.15805 14.4941 1.05254C13.9637 0.947036 13.4139 1.00118 12.9142 1.20814C12.4146 1.4151 11.9876 1.76556 11.6871 2.21522C11.3867 2.66488 11.2263 3.19354 11.2263 3.73434C10.0811 3.34148 8.84861 3.278 7.6691 3.55112C6.4896 3.82424 5.41046 4.423 4.5545 5.27925C1.49204 8.28702 10.324 5.77143 10.324 5.77143" stroke="#151515" stroke-width="0.85" stroke-linecap="round" stroke-linejoin="round"/>
<path d="M15.0135 12.9766L16.7635 13.8379C16.982 13.9397 17.2236 13.982 17.4637 13.9604C17.7038 13.9388 17.9339 13.8541 18.1307 13.7148L22.2322 10.4883C22.5223 10.2708 22.7141 9.94688 22.7653 9.58793C22.8166 9.22897 22.7232 8.86435 22.5056 8.57427C22.2881 8.2842 21.9642 8.09243 21.6052 8.04115C21.2463 7.98987 20.8817 8.08328 20.5916 8.30084L17.1053 11.0352L11.4042 8.10944C10.9265 7.86682 10.3881 7.76987 9.85582 7.83063C9.32353 7.8914 8.82081 8.1072 8.41011 8.45123L6.08592 10.3926C5.79978 10.6404 5.60322 10.9755 5.52662 11.3462C5.45001 11.7169 5.49762 12.1025 5.6621 12.4434L6.89255 14.7949" stroke="#151515" stroke-width="0.85" stroke-linecap="round" stroke-linejoin="round"/>
<path d="M14.781 17.584L17.9938 19.6074C18.1779 19.6999 18.3386 19.8328 18.4641 19.9961C18.5896 20.1595 18.6765 20.3491 18.7184 20.5507L20.0856 27.3866C20.1214 27.5635 20.1218 27.7457 20.0868 27.9228C20.0518 28.0999 19.9821 28.2682 19.8816 28.4182C19.7812 28.5682 19.6521 28.6968 19.5018 28.7966C19.3514 28.8965 19.1827 28.9655 19.0055 28.9999H18.7458C18.4259 29.0063 18.114 28.9004 17.8642 28.7005C17.6143 28.5007 17.4425 28.2196 17.3786 27.9061L16.1345 21.7265L13.4001 20.8105" stroke="#151515" stroke-width="0.85" stroke-linecap="round" stroke-linejoin="round"/>
<path d="M13.6737 14.8086L10.4882 23.9276C10.4055 24.2233 10.2256 24.4826 9.97761 24.6636C9.72959 24.8447 9.42785 24.937 9.12099 24.9256H2.36717C2.00457 24.9256 1.65683 24.7816 1.40044 24.5252C1.14404 24.2688 1 23.921 1 23.5584C1 23.1958 1.14404 22.8481 1.40044 22.5917C1.65683 22.3353 2.00457 22.1913 2.36717 22.1913H8.13663L9.17568 11.2539" stroke="#151515" stroke-width="0.85" stroke-linecap="round" stroke-linejoin="round"/>
</svg>
