<svg width="35" height="43" viewBox="0 0 35 43" fill="none" xmlns="http://www.w3.org/2000/svg">
<path d="M10.762 25.4048V21.5" stroke="white" stroke-width="1.5" stroke-linecap="round" stroke-linejoin="round"/>
<path d="M15.6428 25.4048V19.5476" stroke="white" stroke-width="1.5" stroke-linecap="round" stroke-linejoin="round"/>
<path d="M20.5239 25.4047V15.6428" stroke="white" stroke-width="1.5" stroke-linecap="round" stroke-linejoin="round"/>
<path d="M26.381 6.85718H4.90476C2.74822 6.85718 1 8.6054 1 10.7619V32.2381C1 34.3947 2.74822 36.1429 4.90476 36.1429H26.381C28.5375 36.1429 30.2857 34.3947 30.2857 32.2381V10.7619C30.2857 8.6054 28.5375 6.85718 26.381 6.85718Z" stroke="white" stroke-width="1.5" stroke-miterlimit="10"/>
<path d="M32.7261 20.5239C32.985 20.5239 33.2333 20.421 33.4163 20.238C33.5994 20.0549 33.7023 19.8066 33.7023 19.5477V15.6429C33.7023 15.384 33.5994 15.1357 33.4163 14.9527C33.2333 14.7696 32.985 14.6667 32.7261 14.6667" stroke="white" stroke-width="1.5" stroke-linecap="round" stroke-linejoin="round"/>
<path d="M26.8691 6.85714C26.8691 6.85714 25.2682 6.85714 23.5501 2.23C23.4106 1.87881 23.1721 1.57566 22.8637 1.35733C22.5552 1.139 22.1901 1.01487 21.8125 1H9.47342C9.1129 1.03282 8.7686 1.16523 8.47899 1.38244C8.18938 1.59964 7.96587 1.89309 7.83341 2.23C6.0177 6.85714 4.41675 6.85714 4.41675 6.85714" stroke="white" stroke-width="1.5" stroke-linecap="round" stroke-linejoin="round"/>
<path d="M4.41675 36.1428C4.41675 36.1428 6.0177 36.1428 7.7358 40.77C7.87532 41.1212 8.11377 41.4243 8.42221 41.6426C8.73064 41.861 9.09582 41.9851 9.47342 42H21.8125C22.1901 41.9851 22.5552 41.861 22.8637 41.6426C23.1721 41.4243 23.4106 41.1212 23.5501 40.77C25.2682 36.1428 26.8691 36.1428 26.8691 36.1428" stroke="white" stroke-width="1.5" stroke-linecap="round" stroke-linejoin="round"/>
</svg>
