<svg width="33" height="43" viewBox="0 0 33 43" fill="none" xmlns="http://www.w3.org/2000/svg">
<path d="M19.5 9C21.433 9 23 7.20914 23 5C23 2.79086 21.433 1 19.5 1C17.567 1 16 2.79086 16 5C16 7.20914 17.567 9 19.5 9Z" stroke="white" stroke-width="1.5" stroke-linecap="round" stroke-linejoin="round"/>
<path d="M20.7878 18.3956L23.2991 19.6293C23.6152 19.7752 23.9646 19.8357 24.3118 19.8047C24.6591 19.7738 24.992 19.6525 25.2766 19.4531L31.209 14.8318C31.4168 14.6775 31.5918 14.4842 31.7241 14.2629C31.8564 14.0417 31.9434 13.7968 31.9801 13.5422C32.0168 13.2876 32.0026 13.0284 31.9381 12.7793C31.8737 12.5302 31.7603 12.2961 31.6045 12.0904C31.4487 11.8847 31.2535 11.7113 31.03 11.5803C30.8066 11.4493 30.5593 11.3632 30.3022 11.3268C30.0451 11.2904 29.7833 11.3045 29.5318 11.3684C29.2802 11.4322 29.0438 11.5444 28.8361 11.6987L23.7935 15.6151L15.5475 11.4246C14.8566 11.0771 14.0778 10.9382 13.3079 11.0253C12.538 11.1123 11.8109 11.4214 11.2168 11.9141L7.8749 14.6947C7.45235 15.0435 7.16168 15.5239 7.05034 16.0573C6.939 16.5908 7.01358 17.1459 7.26189 17.632L9.02183 21" stroke="white" stroke-width="1.5" stroke-linecap="round" stroke-linejoin="round"/>
<path d="M20.155 25L25.52 28.0131C25.8222 28.1508 26.0862 28.3487 26.2922 28.592C26.4982 28.8352 26.641 29.1175 26.7098 29.4179L28.9546 39.5972C29.0136 39.8593 29.0151 40.1293 28.9591 40.3918C28.903 40.6543 28.7905 40.9043 28.6279 41.1274C28.4653 41.3505 28.2558 41.5423 28.0114 41.692C27.767 41.8416 27.4926 41.9462 27.2036 41.9996H26.7547C26.2295 42.0092 25.7173 41.8515 25.3071 41.5539C24.8969 41.2563 24.6148 40.8377 24.5099 40.3709L22.4896 31.1687L18 29.8047" stroke="white" stroke-width="1.5" stroke-linecap="round" stroke-linejoin="round"/>
<path d="M20 20.9397L15.2551 33.6118C15.1319 34.0227 14.864 34.383 14.4946 34.6346C14.1252 34.8862 13.6757 35.0145 13.2186 34.9987H3.03644C2.49634 34.9987 1.97837 34.7985 1.59646 34.4422C1.21455 34.086 1 33.6027 1 33.0988C1 32.595 1.21455 32.1117 1.59646 31.7554C1.97837 31.3991 2.49634 31.199 3.03644 31.199H11.7728L13.3001 16" stroke="white" stroke-width="1.5" stroke-linecap="round" stroke-linejoin="round"/>
</svg>
