<svg width="47" height="48" viewBox="0 0 47 48" fill="none" xmlns="http://www.w3.org/2000/svg">
<path d="M27.3825 10.7571C27.3825 9.52957 26.9053 8.35227 26.0559 7.48425C25.2065 6.61622 24.0544 6.12857 22.8531 6.12857C22.8531 4.901 22.3759 3.7237 21.5265 2.85568C20.6771 1.98765 19.525 1.5 18.3237 1.5C17.1224 1.5 15.9704 1.98765 15.1209 2.85568C14.2715 3.7237 13.7943 4.901 13.7943 6.12857C12.593 6.12857 11.441 6.61622 10.5915 7.48425C9.7421 8.35227 9.26489 9.52957 9.26489 10.7571V13.0714H27.3825V10.7571Z" stroke="white" stroke-width="1.5" stroke-linecap="round" stroke-linejoin="round"/>
<path d="M35.7941 44.2312C35.7941 44.833 35.5532 45.4101 35.1245 45.8356C34.6957 46.2611 34.1142 46.5001 33.5078 46.5001H3.78627C3.17992 46.5001 2.59839 46.2611 2.16963 45.8356C1.74087 45.4101 1.5 44.833 1.5 44.2312V10.1976C1.5 9.59587 1.74087 9.01876 2.16963 8.59326C2.59839 8.16776 3.17992 7.92871 3.78627 7.92871H6.07255" stroke="white" stroke-width="1.5" stroke-linecap="round" stroke-linejoin="round"/>
<path d="M31.2649 7.92871H33.5296C34.1302 7.92871 34.7063 8.16576 35.131 8.58772C35.5557 9.00968 35.7943 9.58197 35.7943 10.1787V16.9287" stroke="white" stroke-width="1.5" stroke-linecap="round" stroke-linejoin="round"/>
<path d="M31.2649 30.2548L34.3158 34.2855L39.6767 27.2141" stroke="white" stroke-width="1.5" stroke-linecap="round" stroke-linejoin="round"/>
<path d="M35.4706 40.7145C41.0097 40.7145 45.5 36.2533 45.5 30.7502C45.5 25.2471 41.0097 20.7859 35.4706 20.7859C29.9315 20.7859 25.4412 25.2471 25.4412 30.7502C25.4412 36.2533 29.9315 40.7145 35.4706 40.7145Z" stroke="white" stroke-width="1.5" stroke-miterlimit="10" stroke-linecap="round"/>
<path d="M8.61768 21.4287H22.853" stroke="white" stroke-width="1.5" stroke-linecap="round" stroke-linejoin="round"/>
<path d="M8.61768 28.5H19.6177" stroke="white" stroke-width="1.5" stroke-linecap="round" stroke-linejoin="round"/>
<path d="M8.61768 34.9285H20.9118" stroke="white" stroke-width="1.5" stroke-linecap="round" stroke-linejoin="round"/>
</svg>
