<svg width="24" height="25" viewBox="0 0 24 25" fill="none" xmlns="http://www.w3.org/2000/svg">
<path d="M13.9745 5.6C13.9745 4.99 13.7367 4.40499 13.3136 3.97365C12.8904 3.54232 12.3165 3.3 11.718 3.3C11.718 2.69 11.4803 2.10499 11.0571 1.67365C10.634 1.24232 10.06 1 9.4616 1C8.86316 1 8.28922 1.24232 7.86606 1.67365C7.4429 2.10499 7.20517 2.69 7.20517 3.3C6.60672 3.3 6.03279 3.54232 5.60963 3.97365C5.18646 4.40499 4.94873 4.99 4.94873 5.6V6.75H13.9745V5.6Z" stroke="white" stroke-linecap="round" stroke-linejoin="round"/>
<path d="M17.9233 22.8497C17.9233 23.1547 17.8044 23.4472 17.5928 23.6629C17.3812 23.8785 17.0943 23.9997 16.7951 23.9997H2.12822C1.829 23.9997 1.54203 23.8785 1.33045 23.6629C1.11887 23.4472 1 23.1547 1 22.8497V5.59971C1 5.29471 1.11887 5.0022 1.33045 4.78653C1.54203 4.57087 1.829 4.44971 2.12822 4.44971H3.25644" stroke="white" stroke-linecap="round" stroke-linejoin="round"/>
<path d="M15.6665 4.44971H16.7947C17.0939 4.44971 17.3809 4.57087 17.5925 4.78653C17.8041 5.0022 17.9229 5.29471 17.9229 5.59971V9.04971" stroke="white" stroke-linecap="round" stroke-linejoin="round"/>
<path d="M15.7454 15.7084L17.3249 17.6749L20.1003 14.2249" stroke="white" stroke-linecap="round" stroke-linejoin="round"/>
<path d="M17.9229 21.1251C20.7269 21.1251 22.9999 18.8082 22.9999 15.9501C22.9999 13.0921 20.7269 10.7751 17.9229 10.7751C15.119 10.7751 12.8459 13.0921 12.8459 15.9501C12.8459 18.8082 15.119 21.1251 17.9229 21.1251Z" stroke="white" stroke-width="0.94" stroke-miterlimit="10" stroke-linecap="round"/>
<path d="M4.38452 11.3499H11.7179" stroke="white" stroke-linecap="round" stroke-linejoin="round"/>
<path d="M4.38452 14.8003H10.0256" stroke="white" stroke-linecap="round" stroke-linejoin="round"/>
<path d="M4.38452 18.25H10.5897" stroke="white" stroke-linecap="round" stroke-linejoin="round"/>
</svg>
